<svg xmlns="http://www.w3.org/2000/svg" width="51" height="28" viewBox="0 0 51 28">
    <path fill="#CFCFD1" fill-rule="nonzero" d="M31 4.286L37 0v14l-6-4.286V12a2 2 0 0 1-2 2H15a2 2 0 0 1-2-2V2a2 2 0 0 1 2-2h14a2 2 0 0 1 2 2v2.286zm10.597 3.029C47.661 9.049 51 11.639 51 14.608c0 1.61-1.007 3.964-5.805 6.032-3.375 1.454-8.112 2.511-13.339 2.977a1.074 1.074 0 0 1-.094.004h-.014l-4.408-.06a1.062 1.062 0 0 1 .015-2.124h.014l4.353.059c4.986-.45 9.47-1.446 12.632-2.808 2.873-1.238 4.521-2.725 4.521-4.08 0-1.852-3.013-3.863-7.862-5.25a1.062 1.062 0 0 1 .584-2.043zM19.43 17.388l3.624 4.285c.162.192.251.435.251.686v.081c0 .263-.097.517-.273.712l-3.866 4.284a1.06 1.06 0 0 1-1.501.077 1.062 1.062 0 0 1-.077-1.5l2.119-2.349c-5.1-.413-9.74-1.371-13.199-2.737C2.25 19.247 0 17.063 0 14.607c0-1.48.815-2.863 2.423-4.108C3.81 9.426 5.758 8.477 8.216 7.68a1.063 1.063 0 0 1 .655 2.022c-4.224 1.37-6.746 3.204-6.746 4.906 0 1.465 1.881 3.048 5.162 4.343 3.34 1.318 7.88 2.237 12.896 2.619l-2.377-2.81a1.063 1.063 0 0 1 1.623-1.372z"/>
</svg>
