<svg xmlns="http://www.w3.org/2000/svg" width="24" height="24" viewBox="0 0 24 24">
    <path fill="#CFCFD1" fill-rule="nonzero" d="M8.88 10.2L14.64.24C13.8.12 12.84 0 12 0 9.12 0 6.48.96 4.44 2.76l4.44 7.56v-.12zM23.4 8.4c-1.08-3.48-3.72-6.36-7.2-7.56L11.88 8.4H23.4zm.36 1.2h-9l.36.6 5.76 9.96C22.8 18 24 15.12 24 12c0-.84-.12-1.68-.24-2.4zM7.8 12L3.12 3.84A12.306 12.306 0 0 0 0 12c0 .84.12 1.68.24 2.4h9L7.8 12zM.6 15.6c1.08 3.48 3.72 6.36 7.2 7.56l4.44-7.56H.6zm13.44 0l-4.68 8.16c.84.24 1.68.24 2.64.24 2.88 0 5.52-.96 7.56-2.76l-4.44-7.56-1.08 1.92z"/>
</svg>
